<!DOCTYPE svg  PUBLIC '-//W3C//DTD SVG 1.1//EN'  'http://www.w3.org/Graphics/SVG/1.1/DTD/svg11.dtd'>
<svg width="255px" height="255px" enable-background="new 1.063 -5.734 255 255" version="1.1" viewBox=" 0 255 255" xml:space="preserve" xmlns="http://www.w3.org/2000/svg">
<g>
	<path d="m-0.012 0.01c-6.133-7.141-18.375-21.375-18.375-21.375v-10.45c1.663-5.997 7.167-10.45 13.675-10.45 7.814 0 14.199 6.386 14.2 14.2v6.826l11.3 21.199-20.8 0.05z"/>
	<path d="m-7e-3 2e-3l-11.3-21.2v-6.825c0-7.814 6.411-14.2 14.225-14.2s14.2 6.386 14.2 14.2v6.7l3.625 21.275-20.75 0.05z" fill="#1CC117"/>
	<path d="m139.4 635.76l-3.624-21.27-1e-3 -6.705c-1e-3 -7.814 6.386-14.2 14.2-14.2 7.813 0 14.2 6.386 14.2 14.2v6.725c-1.011 7.078-4.1 21.225-4.1 21.225l-20.675 0.025z"/>
	<path d="m-0.01 9e-3l4.125-21.234v-6.716c0-7.814 6.412-14.2 14.225-14.2 7.814 0 14.2 6.386 14.2 14.2v6.7l-11.95 21.2-20.6 0.05z"/>
	<path d="m3e-3 1e-3l11.95-21.2v-6.7c0-7.814 6.387-14.2 14.2-14.2 7.814 0 14.2 6.386 14.2 14.2v6.7l-19.825 21.15-20.525 0.05z"/>
	<path d="m40.277 20.547l-30.277 35.543v10.12c0 12.831 11.793 24.107 22.502 24.107 12.858 0 23.57-10.837 23.571-23.695 0 12.858 10.344 23.695 23.202 23.695s22.872-10.837 22.872-23.695c-1e-3 12.858 11.001 23.695 23.859 23.695 12.856 0 23.53-10.837 23.53-23.695 0 12.858 10.387 23.695 23.243 23.695 12.858 0 22.831-10.837 22.831-23.695 0 12.858 11.044 23.695 23.9 23.695 12.858 0 23.489-10.837 23.489-23.695v-10.532l-32.91-35.542c-57.454-0.153-169.81-1e-3 -169.81-1e-3z"/>
	<path d="m56.073 84.385c-1.224 2.185-2.927 4.053-4.689 5.807-4.854 4.826-11.548 7.816-18.882 7.816-1.887 0-6.706-1.11-6.706-1.11v131.64h202.72v-132.38c-3.026 1.19-5.573 1.852-9.009 1.852-7.342 0-14.028-2.986-18.882-7.816-1.759-1.752-3.261-3.741-4.484-5.924-1.226 2.187-2.763 4.169-4.525 5.924-4.854 4.823-11.507 7.816-18.841 7.816-7.339 0-14.03-2.986-18.882-7.816-1.759-1.752-3.303-3.743-4.525-5.924-1.226 2.186-2.72 4.169-4.484 5.924-4.854 4.823-11.546 7.816-18.882 7.816-7.339 0-14.03-2.986-18.882-7.816-1.761-1.749-3.261-3.743-4.484-5.924-1.226 2.186-2.759 4.17-4.525 5.924-4.853 4.826-11.506 7.816-18.84 7.816-7.339 0-14.03-2.986-18.882-7.816-1.759-1.75-3.095-3.628-4.32-5.808zm29.167 24.319c8.842 0 15.132 5.725 17.36 14.356h48.871c2.227-8.632 8.476-14.356 17.319-14.356 14.045 0 29.489 14.423 34.308 32.046l11.518 42.083c4.822 17.623-2.736 32.046-16.784 32.046-12.332 0-25.735-11.113-32.087-25.752h-77.461c-6.352 14.639-19.754 25.752-32.087 25.752-14.047 0-21.605-14.423-16.784-32.046l11.518-42.083c4.822-17.623 20.261-32.046 34.309-32.046z"/>
	<path d="m109.7 146l-16.506 17.705h16.261v18.254h32.416v-18.254h17.342l-16.505-17.705-16.504-17.703-16.504 17.703z"/>
	</g>
</svg>
